<svg xmlns="http://www.w3.org/2000/svg" viewBox="0 0 800 600">
  <!-- Background -->
  <rect width="800" height="600" fill="#f5f5f5" rx="10" ry="10"/>
  
  <!-- Title -->
  <text x="400" y="40" font-family="Arial" font-size="24" font-weight="bold" text-anchor="middle">MongoDB eBPF Monitoring Architecture</text>
  
  <!-- MongoDB Server Section -->
  <rect x="50" y="80" width="700" height="120" rx="10" ry="10" fill="#f9f9f9" stroke="#ddd" stroke-width="2"/>
  <text x="400" y="100" font-family="Arial" font-size="16" font-weight="bold" text-anchor="middle">MongoDB Server</text>
  
  <!-- MongoDB Process -->
  <rect x="80" y="120" width="120" height="60" rx="5" ry="5" fill="#4DB33D" stroke="#3c9e32" stroke-width="2"/>
  <text x="140" y="155" font-family="Arial" font-size="14" fill="white" text-anchor="middle">MongoDB</text>
  
  <!-- Kernel Layer -->
  <rect x="220" y="120" width="500" height="60" rx="5" ry="5" fill="#F0F0F0" stroke="#ddd" stroke-width="2"/>
  <text x="470" y="140" font-family="Arial" font-size="14" text-anchor="middle">Linux Kernel</text>
  
  <!-- eBPF Programs -->
  <rect x="240" y="150" width="80" height="20" rx="3" ry="3" fill="#FF9900" stroke="#E68A00" stroke-width="1"/>
  <text x="280" y="164" font-family="Arial" font-size="10" fill="white" text-anchor="middle">File I/O Probe</text>
  
  <rect x="330" y="150" width="80" height="20" rx="3" ry="3" fill="#FF9900" stroke="#E68A00" stroke-width="1"/>
  <text x="370" y="164" font-family="Arial" font-size="10" fill="white" text-anchor="middle">Network Probe</text>
  
  <rect x="420" y="150" width="80" height="20" rx="3" ry="3" fill="#FF9900" stroke="#E68A00" stroke-width="1"/>
  <text x="460" y="164" font-family="Arial" font-size="10" fill="white" text-anchor="middle">Query Probe</text>
  
  <rect x="510" y="150" width="80" height="20" rx="3" ry="3" fill="#FF9900" stroke="#E68A00" stroke-width="1"/>
  <text x="550" y="164" font-family="Arial" font-size="10" fill="white" text-anchor="middle">CPU/Mem Probe</text>
  
  <rect x="600" y="150" width="80" height="20" rx="3" ry="3" fill="#FF9900" stroke="#E68A00" stroke-width="1"/>
  <text x="640" y="164" font-family="Arial" font-size="10" fill="white" text-anchor="middle">Lock Probe</text>
  
  <!-- Connection Lines -->
  <line x1="140" y1="180" x2="140" y2="220" stroke="#666" stroke-width="2" stroke-dasharray="5,5"/>
  <line x1="280" y1="170" x2="280" y2="220" stroke="#666" stroke-width="2" stroke-dasharray="5,5"/>
  <line x1="370" y1="170" x2="370" y2="220" stroke="#666" stroke-width="2" stroke-dasharray="5,5"/>
  <line x1="460" y1="170" x2="460" y2="220" stroke="#666" stroke-width="2" stroke-dasharray="5,5"/>
  <line x1="550" y1="170" x2="550" y2="220" stroke="#666" stroke-width="2" stroke-dasharray="5,5"/>
  <line x1="640" y1="170" x2="640" y2="220" stroke="#666" stroke-width="2" stroke-dasharray="5,5"/>
  
  <!-- Monitoring Agent -->
  <rect x="50" y="220" width="700" height="80" rx="10" ry="10" fill="#E6F3F8" stroke="#BDE0EC" stroke-width="2"/>
  <text x="400" y="240" font-family="Arial" font-size="16" font-weight="bold" text-anchor="middle">eBPF Monitoring Agent</text>
  
  <rect x="80" y="260" width="120" height="30" rx="3" ry="3" fill="#3182BD" stroke="#2171B5" stroke-width="1"/>
  <text x="140" y="280" font-family="Arial" font-size="12" fill="white" text-anchor="middle">MongoDB API</text>
  
  <rect x="210" y="260" width="120" height="30" rx="3" ry="3" fill="#3182BD" stroke="#2171B5" stroke-width="1"/>
  <text x="270" y="280" font-family="Arial" font-size="12" fill="white" text-anchor="middle">eBPF Event Handler</text>
  
  <rect x="340" y="260" width="120" height="30" rx="3" ry="3" fill="#3182BD" stroke="#2171B5" stroke-width="1"/>
  <text x="400" y="280" font-family="Arial" font-size="12" fill="white" text-anchor="middle">Metrics Aggregator</text>
  
  <rect x="470" y="260" width="120" height="30" rx="3" ry="3" fill="#3182BD" stroke="#2171B5" stroke-width="1"/>
  <text x="530" y="280" font-family="Arial" font-size="12" fill="white" text-anchor="middle">Prometheus Exporter</text>
  
  <rect x="600" y="260" width="120" height="30" rx="3" ry="3" fill="#3182BD" stroke="#2171B5" stroke-width="1"/>
  <text x="660" y="280" font-family="Arial" font-size="12" fill="white" text-anchor="middle">Local Storage</text>
  
  <!-- Connection Lines -->
  <line x1="400" y1="300" x2="400" y2="330" stroke="#666" stroke-width="2"/>
  
  <!-- Monitoring Infrastructure -->
  <rect x="50" y="330" width="700" height="220" rx="10" ry="10" fill="#F7F2E0" stroke="#EADCB5" stroke-width="2"/>
  <text x="400" y="350" font-family="Arial" font-size="16" font-weight="bold" text-anchor="middle">Monitoring Infrastructure</text>
  
  <!-- Prometheus -->
  <rect x="80" y="380" width="160" height="60" rx="5" ry="5" fill="#E6522C" stroke="#CD3A14" stroke-width="2"/>
  <text x="160" y="415" font-family="Arial" font-size="14" fill="white" text-anchor="middle">Prometheus</text>
  
  <!-- Time Series DB -->
  <rect x="80" y="460" width="160" height="60" rx="5" ry="5" fill="#326CE5" stroke="#1C55C4" stroke-width="2"/>
  <text x="160" y="495" font-family="Arial" font-size="14" fill="white" text-anchor="middle">Time Series DB</text>
  
  <!-- Grafana -->
  <rect x="320" y="380" width="160" height="140" rx="5" ry="5" fill="#F26529" stroke="#D64B14" stroke-width="2"/>
  <text x="400" y="430" font-family="Arial" font-size="16" fill="white" text-anchor="middle">Grafana</text>
  <text x="400" y="455" font-family="Arial" font-size="12" fill="white" text-anchor="middle">Dashboards</text>
  <text x="400" y="475" font-family="Arial" font-size="12" fill="white" text-anchor="middle">Alerts</text>
  
  <!-- Alert Manager -->
  <rect x="560" y="380" width="160" height="60" rx="5" ry="5" fill="#EB7B18" stroke="#D66D0D" stroke-width="2"/>
  <text x="640" y="415" font-family="Arial" font-size="14" fill="white" text-anchor="middle">Alert Manager</text>
  
  <!-- Management UI -->
  <rect x="560" y="460" width="160" height="60" rx="5" ry="5" fill="#45B298" stroke="#359980" stroke-width="2"/>
  <text x="640" y="495" font-family="Arial" font-size="14" fill="white" text-anchor="middle">Management Console</text>
  
  <!-- Connection Lines -->
  <line x1="160" y1="440" x2="160" y2="460" stroke="#666" stroke-width="2"/>
  <line x1="240" y1="410" x2="320" y2="410" stroke="#666" stroke-width="2"/>
  <line x1="240" y1="490" x2="320" y2="450" stroke="#666" stroke-width="2"/>
  <line x1="480" y1="410" x2="560" y2="410" stroke="#666" stroke-width="2"/>
  <line x1="480" y1="450" x2="560" y2="490" stroke="#666" stroke-width="2"/>
  <line x1="640" y1="440" x2="640" y2="460" stroke="#666" stroke-width="2"/>
  
  <!-- Connection to Notification Services -->
  <rect x="50" y="560" width="700" height="30" rx="5" ry="5" fill="#E8E8E8" stroke="#D0D0D0" stroke-width="2"/>
  <text x="400" y="580" font-family="Arial" font-size="14" text-anchor="middle">Email, Slack, PagerDuty, Webhooks, SMS</text>
  
  <line x1="640" y1="520" x2="640" y2="560" stroke="#666" stroke-width="2"/>
</svg>
